<svg viewBox="0 0 100 100" xmlns="http://www.w3.org/2000/svg">
  <g stroke="#000" stroke-width="3" stroke-linecap="round">
    <line x1="12" y1="12" x2="23" y2="23" />
    <line x1="23" y1="12" x2="12" y2="23" />
    <line x1="27" y1="12" x2="38" y2="23" />
    <line x1="38" y1="12" x2="27" y2="23" />
    <line x1="42" y1="12" x2="53" y2="23" />
    <line x1="53" y1="12" x2="42" y2="23" />
    <line x1="57" y1="12" x2="68" y2="23" />
    <line x1="68" y1="12" x2="57" y2="23" />
    <line x1="12" y1="27" x2="23" y2="38" />
    <line x1="23" y1="27" x2="12" y2="38" />
    <line x1="57" y1="27" x2="68" y2="38" />
    <line x1="68" y1="27" x2="57" y2="38" />
    <line x1="12" y1="42" x2="23" y2="53" />
    <line x1="23" y1="42" x2="12" y2="53" />
    <line x1="57" y1="42" x2="68" y2="53" />
    <line x1="68" y1="42" x2="57" y2="53" />
    <line x1="12" y1="57" x2="23" y2="68" />
    <line x1="23" y1="57" x2="12" y2="68" />
    <line x1="27" y1="57" x2="38" y2="68" />
    <line x1="38" y1="57" x2="27" y2="68" />
    <line x1="42" y1="57" x2="53" y2="68" />
    <line x1="53" y1="57" x2="42" y2="68" />
    <line x1="57" y1="57" x2="68" y2="68" />
    <line x1="68" y1="57" x2="57" y2="68" />
  </g>
</svg>
